<svg xmlns="http://www.w3.org/2000/svg" width="100%" viewBox="0 0 680 620" font-family="Helvetica, Arial, sans-serif">
<defs>
  <marker id="arrow" viewBox="0 0 10 10" refX="8" refY="5" markerWidth="6" markerHeight="6" orient="auto-start-reverse">
    <path d="M2 1L8 5L2 9" fill="none" stroke="context-stroke" stroke-width="1.5" stroke-linecap="round" stroke-linejoin="round"/>
  </marker>
</defs>

<rect x="20" y="40" width="640" height="100" rx="10" fill="#F1EFE8" stroke="#B4B2A9" stroke-width="0.5"/>
<text x="40" y="68" font-size="14" font-weight="500" fill="#444441">Bronze · raw, immutable</text>

<rect x="80" y="84" width="240" height="44" rx="6" fill="#F1EFE8" stroke="#5F5E5A" stroke-width="0.5"/>
<text x="200" y="100" font-size="14" font-weight="500" fill="#2C2C2A" text-anchor="middle" dominant-baseline="central">orders_raw</text>
<text x="200" y="116" font-size="12" fill="#5F5E5A" text-anchor="middle" dominant-baseline="central">108,127 orders</text>

<rect x="360" y="84" width="240" height="44" rx="6" fill="#F1EFE8" stroke="#5F5E5A" stroke-width="0.5"/>
<text x="480" y="100" font-size="14" font-weight="500" fill="#2C2C2A" text-anchor="middle" dominant-baseline="central">country_lookup_raw</text>
<text x="480" y="116" font-size="12" fill="#5F5E5A" text-anchor="middle" dominant-baseline="central">193 countries</text>

<line x1="200" y1="140" x2="200" y2="178" stroke="#5F5E5A" stroke-width="1.5" marker-end="url(#arrow)"/>

<rect x="20" y="180" width="640" height="80" rx="10" fill="#F1EFE8" stroke="#B4B2A9" stroke-width="0.5"/>
<text x="40" y="208" font-size="14" font-weight="500" fill="#444441">Silver · staging</text>

<rect x="80" y="216" width="240" height="36" rx="6" fill="#E6F1FB" stroke="#185FA5" stroke-width="0.5"/>
<text x="200" y="234" font-size="14" font-weight="500" fill="#0C447C" text-anchor="middle" dominant-baseline="central">stg_orders</text>

<rect x="360" y="216" width="240" height="36" rx="6" fill="#E6F1FB" stroke="#185FA5" stroke-width="0.5"/>
<text x="480" y="234" font-size="14" font-weight="500" fill="#0C447C" text-anchor="middle" dominant-baseline="central">stg_country_lookup</text>

<line x1="200" y1="252" x2="200" y2="296" stroke="#5F5E5A" stroke-width="1.5" marker-end="url(#arrow)"/>
<line x1="480" y1="128" x2="480" y2="214" stroke="#5F5E5A" stroke-width="1.5" marker-end="url(#arrow)"/>
<line x1="480" y1="252" x2="480" y2="296" stroke="#5F5E5A" stroke-width="1.5" marker-end="url(#arrow)"/>

<rect x="20" y="298" width="640" height="200" rx="10" fill="#F1EFE8" stroke="#B4B2A9" stroke-width="0.5"/>
<text x="40" y="326" font-size="14" font-weight="500" fill="#444441">Gold · marts</text>

<rect x="40" y="336" width="140" height="44" rx="6" fill="#E6F1FB" stroke="#185FA5" stroke-width="0.5"/>
<text x="110" y="358" font-size="13" font-weight="500" fill="#0C447C" text-anchor="middle" dominant-baseline="central">dim_users</text>

<rect x="190" y="336" width="140" height="44" rx="6" fill="#E6F1FB" stroke="#185FA5" stroke-width="0.5"/>
<text x="260" y="358" font-size="13" font-weight="500" fill="#0C447C" text-anchor="middle" dominant-baseline="central">dim_product</text>

<rect x="340" y="336" width="140" height="44" rx="6" fill="#E6F1FB" stroke="#185FA5" stroke-width="0.5"/>
<text x="410" y="358" font-size="13" font-weight="500" fill="#0C447C" text-anchor="middle" dominant-baseline="central">dim_country</text>

<rect x="490" y="336" width="140" height="44" rx="6" fill="#E6F1FB" stroke="#185FA5" stroke-width="0.5"/>
<text x="560" y="358" font-size="13" font-weight="500" fill="#0C447C" text-anchor="middle" dominant-baseline="central">dim_platform</text>

<rect x="220" y="396" width="240" height="44" rx="6" fill="#E6F1FB" stroke="#185FA5" stroke-width="1"/>
<text x="340" y="414" font-size="14" font-weight="500" fill="#0C447C" text-anchor="middle" dominant-baseline="central">fct_orders</text>
<text x="340" y="430" font-size="11" fill="#185FA5" text-anchor="middle" dominant-baseline="central">cohort enriched</text>

<line x1="110" y1="380" x2="280" y2="394" stroke="#5F5E5A" stroke-width="1" marker-end="url(#arrow)"/>
<line x1="260" y1="380" x2="320" y2="394" stroke="#5F5E5A" stroke-width="1" marker-end="url(#arrow)"/>
<line x1="410" y1="380" x2="360" y2="394" stroke="#5F5E5A" stroke-width="1" marker-end="url(#arrow)"/>
<line x1="560" y1="380" x2="400" y2="394" stroke="#5F5E5A" stroke-width="1" marker-end="url(#arrow)"/>

<line x1="280" y1="440" x2="170" y2="478" stroke="#5F5E5A" stroke-width="1.5" marker-end="url(#arrow)"/>
<line x1="340" y1="440" x2="340" y2="478" stroke="#5F5E5A" stroke-width="1.5" marker-end="url(#arrow)"/>
<line x1="400" y1="440" x2="510" y2="478" stroke="#5F5E5A" stroke-width="1.5" marker-end="url(#arrow)"/>

<rect x="40" y="480" width="200" height="36" rx="6" fill="#E6F1FB" stroke="#185FA5" stroke-width="0.5"/>
<text x="140" y="498" font-size="12" font-weight="500" fill="#0C447C" text-anchor="middle" dominant-baseline="central">mart_cohort_retention</text>

<rect x="250" y="480" width="200" height="36" rx="6" fill="#E6F1FB" stroke="#185FA5" stroke-width="0.5"/>
<text x="350" y="498" font-size="12" font-weight="500" fill="#0C447C" text-anchor="middle" dominant-baseline="central">mart_refund_metrics</text>

<rect x="460" y="480" width="180" height="36" rx="6" fill="#E6F1FB" stroke="#185FA5" stroke-width="0.5"/>
<text x="550" y="498" font-size="12" font-weight="500" fill="#0C447C" text-anchor="middle" dominant-baseline="central">mart_channel_revenue</text>

<rect x="20" y="538" width="640" height="64" rx="10" fill="#FAEEDA" stroke="#EF9F27" stroke-width="0.5"/>
<text x="40" y="566" font-size="14" font-weight="500" fill="#854F0B">Findings</text>

<line x1="140" y1="516" x2="140" y2="572" stroke="#5F5E5A" stroke-width="1.5" marker-end="url(#arrow)"/>
<line x1="350" y1="516" x2="350" y2="572" stroke="#5F5E5A" stroke-width="1.5" marker-end="url(#arrow)"/>
<line x1="550" y1="516" x2="550" y2="572" stroke="#5F5E5A" stroke-width="1.5" marker-end="url(#arrow)"/>

<rect x="40" y="572" width="200" height="20" rx="4" fill="#FAEEDA" stroke="#BA7517" stroke-width="0.5"/>
<text x="140" y="582" font-size="12" fill="#854F0B" text-anchor="middle" dominant-baseline="central">~1% retention baseline</text>

<rect x="250" y="572" width="200" height="20" rx="4" fill="#FAEEDA" stroke="#BA7517" stroke-width="0.5"/>
<text x="350" y="582" font-size="12" fill="#854F0B" text-anchor="middle" dominant-baseline="central">$365K MBA × US leak</text>

<rect x="460" y="572" width="180" height="20" rx="4" fill="#FAEEDA" stroke="#BA7517" stroke-width="0.5"/>
<text x="550" y="582" font-size="12" fill="#854F0B" text-anchor="middle" dominant-baseline="central">96.8% web</text>
</svg>