<svg xmlns="http://www.w3.org/2000/svg" width="100%" viewBox="0 0 680 620" font-family="Helvetica, Arial, sans-serif">
<defs>
  <marker id="arrow" viewBox="0 0 10 10" refX="8" refY="5" markerWidth="6" markerHeight="6" orient="auto-start-reverse">
    <path d="M2 1L8 5L2 9" fill="none" stroke="context-stroke" stroke-width="1.5" stroke-linecap="round" stroke-linejoin="round"/>
  </marker>
</defs>

<rect x="20" y="40" width="640" height="100" rx="10" fill="#F1EFE8" stroke="#B4B2A9" stroke-width="0.5"/>
<text x="40" y="68" font-size="14" font-weight="500" fill="#444441">Bronze · raw, immutable</text>

<rect x="80" y="84" width="240" height="44" rx="6" fill="#F1EFE8" stroke="#5F5E5A" stroke-width="0.5"/>
<text x="200" y="100" font-size="14" font-weight="500" fill="#2C2C2A" text-anchor="middle" dominant-baseline="central">orders_raw</text>
<text x="200" y="116" font-size="12" fill="#5F5E5A" text-anchor="middle" dominant-baseline="central">108,127 orders</text>

<rect x="360" y="84" width="240" height="44" rx="6" fill="#F1EFE8" stroke="#5F5E5A" stroke-width="0.5"/>
<text x="480" y="100" font-size="14" font-weight="500" fill="#2C2C2A" text-anchor="middle" dominant-baseline="central">country_lookup_raw</text>
<text x="480" y="116" font-size="12" fill="#5F5E5A" text-anchor="middle" dominant-baseline="central">193 countries</text>

<line x1="200" y1="140" x2="200" y2="178" stroke="#5F5E5A" stroke-width="1.5" marker-end="url(#arrow)"/>

<rect x="20" y="180" width="640" height="80" rx="10" fill="#F1EFE8" stroke="#B4B2A9" stroke-width="0.5"/>
<text x="40" y="208" font-size="14" font-weight="500" fill="#444441">Silver · staging</text>

<rect x="80" y="216" width="240" height="36" rx="6" fill="#E6F1FB" stroke="#185FA5" stroke-width="0.5"/>
<text x="200" y="234" font-size="14" font-weight="500" fill="#0C447C" text-anchor="middle" dominant-baseline="central">stg_orders</text>
<text x="340" y="234" font-size="12" fill="#444441" dominant-baseline="central">cleaned, typed, validated</text>

<line x1="200" y1="252" x2="200" y2="296" stroke="#5F5E5A" stroke-width="1.5" marker-end="url(#arrow)"/>
<path d="M480 128 L480 316" fill="none" stroke="#888780" stroke-width="0.8" stroke-dasharray="3 3" marker-end="url(#arrow)"/>

<rect x="20" y="298" width="640" height="200" rx="10" fill="#F1EFE8" stroke="#B4B2A9" stroke-width="0.5"/>
<text x="40" y="326" font-size="14" font-weight="500" fill="#444441">Gold · marts</text>

<rect x="80" y="336" width="240" height="44" rx="6" fill="#E6F1FB" stroke="#185FA5" stroke-width="0.5"/>
<text x="200" y="352" font-size="14" font-weight="500" fill="#0C447C" text-anchor="middle" dominant-baseline="central">dim_users</text>
<text x="200" y="368" font-size="12" fill="#185FA5" text-anchor="middle" dominant-baseline="central">87,625 users</text>

<rect x="360" y="336" width="240" height="44" rx="6" fill="#E6F1FB" stroke="#185FA5" stroke-width="0.5"/>
<text x="480" y="352" font-size="14" font-weight="500" fill="#0C447C" text-anchor="middle" dominant-baseline="central">fct_orders</text>
<text x="480" y="368" font-size="12" fill="#185FA5" text-anchor="middle" dominant-baseline="central">cohort enriched</text>

<line x1="320" y1="358" x2="356" y2="358" stroke="#5F5E5A" stroke-width="1.5" marker-end="url(#arrow)"/>
<line x1="420" y1="380" x2="170" y2="428" stroke="#5F5E5A" stroke-width="1.5" marker-end="url(#arrow)"/>
<line x1="480" y1="380" x2="340" y2="428" stroke="#5F5E5A" stroke-width="1.5" marker-end="url(#arrow)"/>
<line x1="540" y1="380" x2="540" y2="428" stroke="#5F5E5A" stroke-width="1.5" marker-end="url(#arrow)"/>

<rect x="60" y="430" width="220" height="48" rx="6" fill="#E6F1FB" stroke="#185FA5" stroke-width="0.5"/>
<text x="170" y="450" font-size="14" font-weight="500" fill="#0C447C" text-anchor="middle" dominant-baseline="central">mart_cohort_retention</text>
<text x="170" y="466" font-size="12" fill="#185FA5" text-anchor="middle" dominant-baseline="central">cohort × month grain</text>

<rect x="290" y="430" width="220" height="48" rx="6" fill="#E6F1FB" stroke="#185FA5" stroke-width="0.5"/>
<text x="400" y="450" font-size="14" font-weight="500" fill="#0C447C" text-anchor="middle" dominant-baseline="central">mart_refund_metrics</text>
<text x="400" y="466" font-size="12" fill="#185FA5" text-anchor="middle" dominant-baseline="central">product × country grain</text>

<rect x="520" y="430" width="120" height="48" rx="6" fill="#E6F1FB" stroke="#185FA5" stroke-width="0.5"/>
<text x="580" y="450" font-size="12" fill="#0C447C" text-anchor="middle" dominant-baseline="central">mart_channel</text>
<text x="580" y="466" font-size="12" fill="#0C447C" text-anchor="middle" dominant-baseline="central">_revenue</text>

<line x1="170" y1="478" x2="170" y2="536" stroke="#5F5E5A" stroke-width="1.5" marker-end="url(#arrow)"/>
<line x1="400" y1="478" x2="400" y2="536" stroke="#5F5E5A" stroke-width="1.5" marker-end="url(#arrow)"/>
<line x1="580" y1="478" x2="580" y2="536" stroke="#5F5E5A" stroke-width="1.5" marker-end="url(#arrow)"/>

<rect x="20" y="538" width="640" height="64" rx="10" fill="#FAEEDA" stroke="#EF9F27" stroke-width="0.5"/>
<text x="40" y="566" font-size="14" font-weight="500" fill="#854F0B">Findings</text>

<rect x="60" y="572" width="220" height="20" rx="4" fill="#FAEEDA" stroke="#BA7517" stroke-width="0.5"/>
<text x="170" y="582" font-size="12" fill="#854F0B" text-anchor="middle" dominant-baseline="central">~1% retention baseline</text>

<rect x="290" y="572" width="220" height="20" rx="4" fill="#FAEEDA" stroke="#BA7517" stroke-width="0.5"/>
<text x="400" y="582" font-size="12" fill="#854F0B" text-anchor="middle" dominant-baseline="central">$365K MBA × US leak</text>

<rect x="520" y="572" width="120" height="20" rx="4" fill="#FAEEDA" stroke="#BA7517" stroke-width="0.5"/>
<text x="580" y="582" font-size="12" fill="#854F0B" text-anchor="middle" dominant-baseline="central">96.8% web</text>
</svg>