<svg xmlns="http://www.w3.org/2000/svg" width="100%" viewBox="0 0 680 480" font-family="Helvetica, Arial, sans-serif">

<rect x="40" y="60" width="260" height="280" rx="8" fill="#E6F1FB" stroke="#185FA5" stroke-width="0.5"/>

<path d="M40 68 Q40 60 48 60 L292 60 Q300 60 300 68 L300 110 L40 110 Z" fill="#185FA5"/>
<text x="60" y="84" font-size="14" font-weight="500" fill="#FFFFFF" dominant-baseline="central">dim_users</text>
<text x="60" y="100" font-size="11" fill="#B5D4F4" dominant-baseline="central">one row per user</text>

<text x="60" y="138" font-size="12" font-weight="500" fill="#0C447C" dominant-baseline="central">user_id</text>
<text x="280" y="138" font-size="12" fill="#0C447C" text-anchor="end" dominant-baseline="central">PK</text>

<text x="60" y="162" font-size="12" fill="#444441" dominant-baseline="central">first_purchase_date</text>
<text x="60" y="186" font-size="12" fill="#444441" dominant-baseline="central">first_purchase_month</text>
<text x="60" y="210" font-size="12" fill="#444441" dominant-baseline="central">first_purchase_country</text>
<text x="60" y="234" font-size="12" fill="#444441" dominant-baseline="central">first_purchase_platform</text>
<text x="60" y="258" font-size="12" fill="#444441" dominant-baseline="central">first_purchase_product</text>
<text x="60" y="282" font-size="12" fill="#444441" dominant-baseline="central">loyalty_at_first_purchase</text>

<text x="60" y="318" font-size="12" font-style="italic" fill="#5F5E5A" dominant-baseline="central">7 columns · 87,625 rows</text>

<line x1="300" y1="200" x2="380" y2="200" stroke="#185FA5" stroke-width="1.5"/>
<circle cx="300" cy="200" r="4" fill="#185FA5"/>
<line x1="372" y1="194" x2="372" y2="206" stroke="#185FA5" stroke-width="1.5"/>
<polyline points="376,194 380,200 376,206" fill="none" stroke="#185FA5" stroke-width="1.5"/>
<text x="340" y="186" font-size="12" fill="#0C447C" text-anchor="middle" dominant-baseline="central">places</text>
<text x="312" y="216" font-size="12" fill="#5F5E5A" text-anchor="middle" dominant-baseline="central">1</text>
<text x="368" y="216" font-size="12" fill="#5F5E5A" text-anchor="middle" dominant-baseline="central">N</text>

<rect x="380" y="60" width="260" height="380" rx="8" fill="#EEEDFE" stroke="#534AB7" stroke-width="0.5"/>

<path d="M380 68 Q380 60 388 60 L632 60 Q640 60 640 68 L640 110 L380 110 Z" fill="#534AB7"/>
<text x="400" y="84" font-size="14" font-weight="500" fill="#FFFFFF" dominant-baseline="central">fct_orders</text>
<text x="400" y="100" font-size="11" fill="#CECBF6" dominant-baseline="central">one row per order</text>

<text x="400" y="138" font-size="12" font-weight="500" fill="#26215C" dominant-baseline="central">order_id</text>
<text x="620" y="138" font-size="12" fill="#26215C" text-anchor="end" dominant-baseline="central">PK</text>

<text x="400" y="162" font-size="12" font-weight="500" fill="#26215C" dominant-baseline="central">user_id</text>
<text x="620" y="162" font-size="12" fill="#26215C" text-anchor="end" dominant-baseline="central">FK</text>

<text x="400" y="186" font-size="12" fill="#444441" dominant-baseline="central">purchase_month</text>
<text x="400" y="210" font-size="12" fill="#444441" dominant-baseline="central">cohort_month</text>
<text x="400" y="234" font-size="12" fill="#444441" dominant-baseline="central">months_since_acquisition</text>
<text x="400" y="258" font-size="12" fill="#444441" dominant-baseline="central">product_name</text>
<text x="400" y="282" font-size="12" fill="#444441" dominant-baseline="central">country_code</text>
<text x="400" y="306" font-size="12" fill="#444441" dominant-baseline="central">purchase_platform</text>
<text x="400" y="330" font-size="12" fill="#444441" dominant-baseline="central">usd_price</text>
<text x="400" y="354" font-size="12" fill="#444441" dominant-baseline="central">is_refunded</text>
<text x="400" y="378" font-size="12" fill="#444441" dominant-baseline="central">is_first_purchase</text>
<text x="400" y="402" font-size="12" fill="#444441" dominant-baseline="central">user_order_seq</text>

<text x="400" y="430" font-size="12" font-style="italic" fill="#5F5E5A" dominant-baseline="central">13 columns · 108,124 rows</text>
</svg>